<svg xmlns="http://www.w3.org/2000/svg" viewBox="0 0 853.33331 933.33331">
  <rect width="853.33331" height="933.33331" fill="#12161C" rx="160" />
  <path
    fill="#0177a9"
    d="M 0.5,0.1114279 0.21875,0.59 H 0.4140621 L 0.6093743,0.2799997 Z"
    transform="matrix(853.33331,0,0,-933.33331,0,933.33331)"
  />
  <path
    fill="#0177a9"
    d="m 0.0718736,0.8385724 0.1062518,-0.18 h 0.1921864 l -0.1156257,0.18 z"
    transform="matrix(853.33331,0,0,-933.33331,0,933.33331)"
  />
  <path
    fill="#0083bb"
    d="m 0.3687489,0.6585724 -0.1156225,0.18 h 0.0921861 l 0.1140629,-0.18 z"
    transform="matrix(853.33331,0,0,-933.33331,0,933.33331)"
  />
  <path
    fill="#018dc8"
    d="m 0.3437496,0.8385724 0.1140629,-0.18 0.1953121,-0.3100003 0.1078115,0.1671428 -0.2078118,0.3228575 z"
    transform="matrix(853.33331,0,0,-933.33331,0,933.33331)"
  />
  <path
    fill="#019add"
    d="m 0.6671871,0.6585724 h 0.084375 l -0.1249996,0.18 H 0.5515614 Z"
    transform="matrix(853.33331,0,0,-933.33331,0,933.33331)"
  />
  <path
    fill="#00aaf0"
    d="m 0.7499993,0.6585724 h 0.1046889 l -0.1265625,0.18 H 0.6249996 Z"
    transform="matrix(853.33331,0,0,-933.33331,0,933.33331)"
  />
  <path
    fill="#00b4ff"
    d="m 0.8531254,0.6585724 0.1171885,0.18 h -0.243751 z"
    transform="matrix(853.33331,0,0,-933.33331,0,933.33331)"
  />
</svg>
